<svg width="31" height="28" viewBox="0 0 31 28" fill="none" xmlns="http://www.w3.org/2000/svg">
<path d="M24.1587 0.163736C23.8594 -0.0413817 23.478 -0.0589633 23.1553 0.122713C21.4009 1.13072 19.7052 2.28524 18.1034 3.55698C17.8922 3.72693 17.7631 3.97893 17.7513 4.24852C17.7396 4.5181 17.8452 4.78183 18.0388 4.96936C21.3599 8.12818 25.96 17.8156 27.0162 22.2696C24.7278 18.4017 19.6231 9.30029 16.2845 6.18835C15.9265 5.8543 15.3633 5.8543 15.0053 6.18835C11.6608 9.30029 6.5737 18.4075 4.28536 22.2813C5.34152 17.8273 9.92992 8.12818 13.2509 4.96936C13.4504 4.78183 13.5561 4.5181 13.5443 4.24852C13.5326 3.97893 13.4035 3.72693 13.1923 3.55698C11.5904 2.28524 9.88885 1.13072 8.14033 0.122713C7.82935 -0.0589633 7.43622 -0.0413817 7.13698 0.163736C3.05905 2.97093 0.624023 7.58315 0.624023 12.506C0.624023 16.1043 1.92075 19.5738 4.28536 22.2813C7.11351 25.5984 11.2501 27.5089 15.6449 27.5089C20.0397 27.5089 24.1822 25.6042 27.0162 22.2755C29.369 19.5796 30.6658 16.1102 30.6658 12.506C30.6658 7.58315 28.2307 2.97093 24.1587 0.163736Z" fill="#FFB548"/>
</svg>
